<svg width="253" height="77" fill="none" xmlns="http://www.w3.org/2000/svg"><path d="M17.067 0H55.3a17.038 17.038 0 0 1 17.067 17.064v38.241a17.028 17.028 0 0 1-17.066 17.063H17.066C7.629 72.368 0 64.744 0 55.305V17.079C0 7.624 7.614 0 17.067 0Z" fill="#C74634"/><path d="M34.834 37.899c-.819 5.278-5.824 9.067-11.982 9.067-7.447 0-12.862-5.368-12.862-12.797 0-.917.09-5.654 3.7-9.248 1.639-1.624 3.338-2.36 4.126-2.707 1.835-.781 3.701-1.097 14.94-1.097h.637c1.274 1.579 2.548 3.158 3.823 4.721-3.701-.015-8.783.06-14.228.361-1 .06-2.502.166-3.989 1.143-2.063 1.354-3.321 3.79-3.321 6.812 0 4.662 3.048 7.955 7.31 7.955 3.05 0 5.794-2.075 6.538-4.902l5.308.692Z" fill="#fff"/><path d="M41.887 36.26c.197 3.323 3.291 5.88 7.114 5.88 4.535 0 7.796-3.354 7.796-7.956 0-2.797-1.153-5.112-3.049-6.51-1.38-1.023-2.806-1.249-4.565-1.444-2.837-.316-6.886-.587-11.968-.361a1284.312 1284.312 0 0 0-3.822-4.722 374.31 374.31 0 0 1 7.16 0c4.155.03 6.248.105 7.31.15 1.805.075 2.7.12 3.019.15 1.198.166 5.657.797 8.797 4.587 2.563 3.098 2.806 6.707 2.806 8.15 0 7.414-5.582 12.797-13.348 12.797-8.13 0-13.514-6.045-12.725-14.406H49.35v3.7l-7.463-.015ZM53.202 20.8c-.303-.105-.712-.24-1.213-.375-.273-.075-.485-.136-.758-.18-.759-.151-1.366-.166-2.124-.181-.227 0-.53-.015-.91 0V9.914h5.005V20.8Z" fill="#fff"/><path d="M37.458 53.786c.076.376.47 2.225 2.29 3.308 0 0 1.35.722 3.05.737.197 0 2.79-.09 4.489-2 1.29-1.459 1.38-3.188 1.41-3.91.016-.195 0-.21-.03-2.06-.015-.947-.03-1.714-.03-2.226.637.06 1.41.076 2.305 0 .698-.06 1.32-.18 1.805-.3v4.571c-.015.752-.09 3.023-1.547 5.218-1.077 1.64-2.518 2.572-3.322 3.008a10.869 10.869 0 0 1-5.49 1.323c-.5-.03-1.73-.12-3.17-.662a9.882 9.882 0 0 1-2.746-1.594 9.885 9.885 0 0 1-2.305-2.706 8.723 8.723 0 0 1-1.047-2.767c1.441.015 2.882.045 4.338.06Z" fill="#fff" stroke="#fff" stroke-width="2"/><path d="M39.733 49.274h-8.326c-1.199 0-2.17 1.113-2.17 2.482v.466c0 1.368.971 2.481 2.17 2.481h8.326c1.199 0 2.17-1.113 2.17-2.481v-.466c-.016-1.369-.986-2.482-2.17-2.482Z" fill="#fff"/><path d="M102.812 49.523c-.378 3.928-4.035 6.795-8.673 6.795-5.35 0-9.217-3.807-9.217-9.07 0-5.248 3.868-9.07 9.186-9.07 4.594 0 8.22 2.882 8.658 6.886l-4.714.5a3.874 3.874 0 0 0-3.777-3.033c-2.524 0-4.246 1.91-4.246 4.702 0 2.79 1.737 4.701 4.215 4.701 1.814 0 3.4-1.258 3.793-2.987l4.775.576ZM104.912 55.726V38.785h5.122v6.203h5.636v-6.203h5.122v16.941h-5.122v-6.75h-5.636v6.75h-5.122Z" fill="#363C41"/><path fill-rule="evenodd" clip-rule="evenodd" d="M134.829 55.726h5.349l-5.288-16.941h-7.449l-5.274 16.941h5.349l.725-2.548h5.863l.725 2.548Zm-1.707-6.158h-3.883l1.934-6.46 1.949 6.46Z" fill="#363C41"/><path d="M141.583 55.726V38.785h5.123v12.588h6.18v4.353h-11.303ZM154.865 55.726V38.785h5.122v12.588h6.18v4.353h-11.302ZM180.416 51.707v4.02h-12.285V38.784h12.043v4.004h-7.117v2.578h6.18v3.458h-6.18v2.882h7.359ZM193.607 49.553V38.785h4.759v16.941h-5.333l-5.772-10.738v10.738h-4.76V38.785h5.334l5.772 10.768ZM209.774 48.931v-2.988h9.187c.62 6.007-3.188 10.36-9.005 10.36-5.485 0-9.474-3.807-9.474-9.07 0-5.248 3.989-9.07 9.474-9.07 4.125 0 7.418 2.366 8.204 5.672l-4.714.88c-.408-1.274-1.843-2.2-3.506-2.2-2.523 0-4.336 1.957-4.336 4.702 0 2.715 1.889 4.702 4.548 4.702 2.07 0 3.793-1.304 3.944-3.033h-4.322v.045ZM233.421 51.707v4.02h-12.284V38.784h12.042v4.004h-7.116v2.578h6.179v3.458h-6.179v2.882h7.358ZM234.902 50.145h4.427c.03 1.44 1.36 2.502 3.203 2.502 1.511 0 2.478-.713 2.478-1.653 0-2.988-10.017-.045-10.017-6.977 0-3.504 2.991-5.824 7.237-5.824s7.313 2.487 7.328 5.915h-4.261c0-1.304-1.254-2.245-2.916-2.245-1.435 0-2.432.637-2.432 1.532 0 2.836 10.017-.045 10.017 6.886 0 3.58-3.127 6.037-7.585 6.037-4.336 0-7.479-2.61-7.479-6.173Z" fill="#363C41"/><path fill-rule="evenodd" clip-rule="evenodd" d="M124.878 26.909a.67.67 0 0 1-.271.407 1.044 1.044 0 0 1-.407.17c-.271.101-.576.17-.814.305-.305.136-.576.204-.814.305-.305.136-.61.204-.881.306a5.498 5.498 0 0 0-.611.34 2.188 2.188 0 0 0-.441.508c-.135.204-.169.475-.169.814 0 .645.169 1.12.475 1.493.305.306.881.475 1.729.475.848 0 1.424-.17 1.73-.475.305-.34.474-.814.474-1.425V26.91Zm-2.238-6.888c1.526 0 2.611.306 3.358.883.712.61 1.051 1.357 1.051 2.239v7.634c0 .305-.034.644-.17 1.018a2.479 2.479 0 0 1-.644 1.017c-.339.306-.78.577-1.357.78-.576.204-1.322.306-2.238.306-.915 0-1.661-.102-2.238-.305a3.97 3.97 0 0 1-1.356-.78c-.34-.306-.577-.645-.645-1.018-.102-.408-.169-.713-.169-1.018V29.52c0-.644.169-1.255.474-1.798.34-.509.814-.916 1.425-1.12.305-.135.644-.203 1.051-.339.407-.135.78-.271 1.187-.407.407-.136.712-.271.949-.34.272-.1.441-.169.509-.169.034-.034.17-.102.271-.136.102-.033.204-.17.34-.27.101-.137.169-.272.271-.408.102-.17.102-.34.102-.577v-.475c0-.17-.034-.34-.102-.509-.034-.17-.17-.34-.339-.475-.17-.17-.407-.271-.712-.407-.272-.102-.645-.136-1.086-.136-.881 0-1.424.17-1.729.51a1.722 1.722 0 0 0-.441 1.119c0 .102-.102.17-.17.17h-1.865c-.101 0-.169-.102-.169-.17v-.441c0-.441.101-.814.271-1.222.17-.407.441-.712.78-1.017.339-.272.814-.51 1.39-.645.577-.102 1.221-.238 2.001-.238ZM92.662 26.91a.675.675 0 0 1-.272.407c-.135.102-.27.136-.406.17-.272.101-.577.17-.814.305-.306.136-.577.204-.814.305-.305.136-.61.204-.882.306a5.482 5.482 0 0 0-.61.34c-.17.135-.306.304-.441.508-.136.204-.17.475-.17.814 0 .645.17 1.12.475 1.493.305.306.882.475 1.73.475.847 0 1.424-.17 1.797-.475.305-.34.475-.814.475-1.425l-.068-3.223Zm-2.17-6.888c1.525 0 2.61.306 3.357.883.712.61 1.05 1.357 1.05 2.239v7.634c0 .305-.033.644-.169 1.018-.101.407-.339.712-.644 1.017-.34.306-.78.577-1.356.78-.577.204-1.323.306-2.239.306-.915 0-1.661-.102-2.238-.305a3.97 3.97 0 0 1-1.356-.78c-.34-.306-.577-.645-.645-1.018a3.03 3.03 0 0 1-.17-1.018V29.52c0-.644.17-1.255.476-1.798.339-.509.813-.916 1.424-1.12.305-.135.644-.203 1.051-.339.407-.135.78-.271 1.187-.407.407-.136.712-.271.95-.34.27-.1.44-.169.508-.169.102 0 .17-.102.272-.136.135-.033.203-.17.339-.27.135-.137.17-.272.271-.408.102-.17.136-.34.136-.577v-.475c0-.17-.034-.34-.136-.509-.034-.17-.17-.34-.34-.475-.169-.17-.406-.271-.711-.407-.272-.102-.645-.136-1.085-.136-.882 0-1.425.17-1.73.51a1.72 1.72 0 0 0-.44 1.119c0 .102-.103.17-.17.17h-1.866c-.101 0-.17-.102-.17-.17v-.441c0-.441.103-.814.272-1.222.17-.407.441-.712.78-1.017.34-.272.814-.51 1.39-.645.51-.102 1.221-.238 2.001-.238Zm25.467 0h1.255c.136 0 .17.136.17.204l-.441 1.629c0 .101-.102.135-.17.135h-.847c-.475 0-.814.034-1.12.17-.271.136-.508.271-.644.441-.169.17-.271.34-.305.509-.034.17-.034.34-.034.509v10.145c0 .101-.102.17-.17.17h-1.865c-.101 0-.169-.103-.169-.17V23.177c0-.17.034-.475.135-.814.034-.34.272-.713.577-1.052.305-.34.746-.645 1.322-.916.441-.238 1.289-.374 2.306-.374Zm-6.307 10.315v.475c0 .203-.034.475-.136.814-.034.34-.271.712-.576 1.052-.306.34-.746.644-1.323.916-.61.271-1.39.407-2.442.407-1.051 0-1.865-.136-2.441-.407-.611-.272-1.052-.577-1.323-.916a2.703 2.703 0 0 1-.576-1.052c-.034-.34-.136-.61-.136-.814V20.259c0-.102.102-.17.17-.17h1.865c.101 0 .169.102.169.17V30.2c0 .34.034.577.102.746.034.17.136.408.271.51.136.169.339.305.645.44.271.136.644.17 1.187.17.474 0 .915-.034 1.22-.17.306-.135.509-.271.645-.407.169-.17.271-.339.305-.509.034-.17.136-.339.136-.78v-9.907c0-.102.101-.17.169-.17h1.865c.102 0 .17.102.17.17l.034 10.043ZM96.901 15h1.865c.102 0 .17.102.17.17v18.626c0 .102-.102.17-.17.17h-1.865c-.102 0-.17-.102-.17-.17V15.17c0-.068.068-.17.17-.17Z" fill="#363C41"/></svg>